Susan-0.2.sfdir
StartChar: period
Encoding: 46 46 53
Width: 167
VWidth: 0
Flags: HW
LayerCount: 2
Fore
SplineSet
136 121 m 0
 143 113 143 7 136 0 c 0
 128 -7 36 -7 29 0 c 0
 22 7 22 114 29 121 c 0
 37 128 129 128 136 121 c 0
EndSplineSet
Validated: 33
EndChar
StartChar: A
Encoding: 65 65 3
Width: 306
VWidth: 0
Flags: HW
LayerCount: 2
Fore
SplineSet
112 686 m 1
 191 686 l 1
 291 0 l 1
 205 0 l 1
 155 443 l 1
 148 443 l 1
 98 0 l 1
 12 0 l 1
 112 686 l 1
84 100 m 1
 84 171 l 1
 219 171 l 1
 219 100 l 1
 84 100 l 1
EndSplineSet
Validated: 5
EndChar
StartChar: B
Encoding: 66 66 4
Width: 349
VWidth: 0
Flags: HW
LayerCount: 2
Fore
SplineSet
22 686 m 1
 129 685 l 2
 215 685 308 650 308 514 c 1
 308 439 287 396 255 372 c 1
 301 346 329 295 329 200 c 0
 329 14 235 0 143 0 c 2
 22 0 l 1
 22 686 l 1
115 629 m 2
 108 629 l 1
 108 400 l 1
 115 400 l 2
 201 400 215 428 215 514 c 0
 215 579 201 629 115 629 c 2
108 72 m 1
 122 72 l 2
 215 72 236 107 236 200 c 0
 236 300 210 343 115 343 c 2
 108 343 l 1
 108 72 l 1
EndSplineSet
Validated: 1
EndChar
StartChar: C
Encoding: 67 67 5
Width: 335
VWidth: 0
Flags: HW
LayerCount: 2
Fore
SplineSet
226 286 m 1
 312 286 l 1
 319 150 297 -7 176 -7 c 0
 83 -7 18 35 18 330 c 0
 18 595 69 693 169 693 c 1
 277 693 310 601 309 487 c 0
 308 465 308 443 305 421 c 1
 219 421 l 1
 233 560 212 622 169 622 c 0
 133 622 110 558 110 330 c 0
 110 83 147 65 169 65 c 0
 204 65 233 143 226 286 c 1
EndSplineSet
Validated: 33
EndChar
StartChar: D
Encoding: 68 68 2
Width: 316
VWidth: 0
Flags: HW
LayerCount: 2
Fore
SplineSet
129 1 m 2
 22 0 l 1
 22 686 l 1
 129 686 l 2
 238 686 294 593 294 336 c 0
 294 50 231 1 129 1 c 2
108 72 m 1
 129 72 l 2
 153 72 201 69 201 336 c 0
 201 565 168 622 129 622 c 2
 108 622 l 1
 108 72 l 1
EndSplineSet
Validated: 33
EndChar
StartChar: E
Encoding: 69 69 6
Width: 242
VWidth: 0
Flags: HW
LayerCount: 2
Fore
SplineSet
22 686 m 1
 222 686 l 1
 222 614 l 1
 108 614 l 1
 108 379 l 1
 200 379 l 1
 200 307 l 1
 108 307 l 1
 108 72 l 1
 222 72 l 1
 222 0 l 1
 22 0 l 1
 22 686 l 1
EndSplineSet
Validated: 1
EndChar
StartChar: F
Encoding: 70 70 7
Width: 238
VWidth: 0
Flags: HW
LayerCount: 2
Fore
SplineSet
22 686 m 1
 222 686 l 1
 222 614 l 1
 108 614 l 1
 108 379 l 1
 201 379 l 1
 201 307 l 1
 108 307 l 1
 108 0 l 1
 22 0 l 1
 22 686 l 1
EndSplineSet
Validated: 1
EndChar
StartChar: G
Encoding: 71 71 8
Width: 339
VWidth: 0
Flags: HW
LayerCount: 2
Fore
SplineSet
168 693 m 0
 297 693 318 579 296 450 c 1
 211 450 l 1
 233 593 204 621 168 621 c 0
 133 621 111 573 111 337 c 0
 111 65 146 65 168 65 c 0
 204 65 232 93 232 236 c 2
 232 250 l 2
 232 307 189 307 182 307 c 2
 182 336 l 1
 311 336 l 1
 311 79 l 2
 311 29 318 0 318 0 c 1
 282 0 l 1
 261 29 l 1
 240 7 208 -7 168 -7 c 0
 75 -7 18 42 18 337 c 0
 18 602 68 693 168 693 c 0
EndSplineSet
Validated: 33
EndChar
StartChar: H
Encoding: 72 72 9
Width: 321
VWidth: 0
Flags: HW
LayerCount: 2
Fore
SplineSet
208 686 m 1
 294 686 l 1
 294 0 l 1
 208 0 l 1
 208 322 l 1
 108 322 l 1
 108 0 l 1
 22 0 l 1
 22 686 l 1
 108 686 l 1
 108 393 l 1
 208 393 l 1
 208 686 l 1
EndSplineSet
Validated: 1
EndChar
StartChar: I
Encoding: 73 73 10
Width: 135
VWidth: 0
Flags: HW
LayerCount: 2
Fore
SplineSet
108 686 m 1
 108 0 l 1
 22 0 l 1
 22 686 l 1
 108 686 l 1
EndSplineSet
Validated: 1
EndChar
StartChar: J
Encoding: 74 74 11
Width: 315
VWidth: 0
Flags: HW
LayerCount: 2
Fore
SplineSet
203 686 m 1
 289 686 l 1
 289 214 l 2
 289 64 282 -7 153 -7 c 0
 24 -7 3 122 25 265 c 1
 61 265 81 265 110 265 c 1
 88 108 117 65 153 65 c 0
 181 65 203 85 203 150 c 2
 203 686 l 1
EndSplineSet
Validated: 33
EndChar
StartChar: K
Encoding: 75 75 12
Width: 358
VWidth: 0
Flags: HW
LayerCount: 2
Fore
SplineSet
186 364 m 1
 344 0 l 1
 248 0 l 1
 122 322 l 1
 108 322 l 1
 108 0 l 1
 22 0 l 1
 22 686 l 1
 108 686 l 1
 108 393 l 1
 115 393 l 1
 237 686 l 1
 322 686 l 1
 186 364 l 1
EndSplineSet
Validated: 1
EndChar
StartChar: L
Encoding: 76 76 13
Width: 262
VWidth: 0
Flags: HW
LayerCount: 2
Fore
SplineSet
22 0 m 1
 22 686 l 1
 108 686 l 1
 108 72 l 1
 244 72 l 1
 244 0 l 1
 22 0 l 1
EndSplineSet
Validated: 1
EndChar
StartChar: M
Encoding: 77 77 14
Width: 406
VWidth: 0
Flags: HW
LayerCount: 2
Fore
SplineSet
272 686 m 1
 379 686 l 1
 379 0 l 1
 294 0 l 1
 301 414 l 1
 294 414 l 1
 229 0 l 1
 172 0 l 1
 108 414 l 1
 101 414 l 1
 108 0 l 1
 22 0 l 1
 22 686 l 1
 129 686 l 1
 201 243 l 1
 272 686 l 1
EndSplineSet
Validated: 1
EndChar
StartChar: N
Encoding: 78 78 15
Width: 321
VWidth: 0
Flags: HW
LayerCount: 2
Fore
SplineSet
208 686 m 1
 294 686 l 1
 294 0 l 1
 215 0 l 1
 108 400 l 1
 101 400 l 1
 108 0 l 1
 22 0 l 1
 22 686 l 1
 101 686 l 1
 208 286 l 1
 215 286 l 1
 208 686 l 1
EndSplineSet
Validated: 1
EndChar
StartChar: O
Encoding: 79 79 16
Width: 340
VWidth: 0
Flags: HW
LayerCount: 2
Fore
SplineSet
168 693 m 0
 268 693 317 594 318 336 c 0
 318 45 254 -7 168 -7 c 0
 82 -7 18 44 18 336 c 0
 18 594 68 693 168 693 c 0
168 65 m 0
 264 65 257 628 168 629 c 0
 78 629 72 65 168 65 c 0
EndSplineSet
Validated: 33
EndChar
StartChar: P
Encoding: 80 80 17
Width: 328
VWidth: 0
Flags: HW
LayerCount: 2
Fore
SplineSet
136 686 m 2
 229 686 308 664 308 493 c 0
 308 321 229 300 136 300 c 2
 108 300 l 1
 108 0 l 1
 22 0 l 1
 22 686 l 1
 136 686 l 2
122 357 m 2
 208 357 215 394 215 493 c 0
 215 592 208 629 122 629 c 2
 108 629 l 1
 108 357 l 1
 122 357 l 2
EndSplineSet
Validated: 1
EndChar
StartChar: Q
Encoding: 81 81 18
Width: 340
VWidth: 0
Flags: HW
LayerCount: 2
Fore
SplineSet
296 -36 m 1
 296 -79 289 -129 217 -129 c 0
 181 -129 138 -107 138 -14 c 0
 138 0 138 29 138 29 c 1
 188 29 l 1
 188 -16 l 2
 188 -35 188 -86 224 -86 c 0
 253 -86 253 -43 253 -36 c 2
 296 -36 l 1
EndSplineSet
Refer: 16 79 S 1 0 0 1 7 0 2
Validated: 5
EndChar
StartChar: R
Encoding: 82 82 19
Width: 331
VWidth: 0
Flags: HW
LayerCount: 2
Fore
SplineSet
136 686 m 1
 229 686 308 667 308 508 c 0
 308 418 282 373 243 350 c 1
 268 331 286 278 286 178 c 0
 286 49 315 0 315 0 c 1
 250 0 l 2
 222 0 200 0 200 143 c 0
 200 315 179 329 143 329 c 2
 108 329 l 1
 108 0 l 1
 22 0 l 1
 22 686 l 1
 136 686 l 1
122 386 m 2
 201 386 215 424 215 507 c 0
 215 599 201 629 122 629 c 2
 108 629 l 1
 108 386 l 1
 122 386 l 2
EndSplineSet
Validated: 1
EndChar
StartChar: S
Encoding: 83 83 20
Width: 337
VWidth: 0
Flags: HW
LayerCount: 2
Fore
SplineSet
203 500 m 2
 203 500 229 629 160 629 c 0
 129 629 110 599 110 521 c 0
 110 456 146 429 203 386 c 0
 286 324 317 265 317 171 c 0
 317 42 253 -7 160 -7 c 0
 72 -7 -5 50 24 236 c 1
 111 236 l 1
 104 171 103 65 160 65 c 0
 203 65 217 107 217 157 c 0
 217 207 210 251 131 308 c 0
 44 371 17 422 17 515 c 0
 17 651 95 693 152 693 c 0
 221 693 317 664 289 500 c 1
 203 500 l 2
EndSplineSet
Validated: 33
EndChar
StartChar: T
Encoding: 84 84 21
Width: 300
VWidth: 0
Flags: HW
LayerCount: 2
Fore
SplineSet
105 621 m 1
 12 621 l 1
 12 686 l 1
 284 686 l 1
 284 621 l 1
 190 621 l 1
 190 7 l 1
 105 7 l 1
 105 621 l 1
EndSplineSet
EndChar
StartChar: U
Encoding: 85 85 22
Width: 332
VWidth: 0
Flags: HW
LayerCount: 2
Fore
SplineSet
221 686 m 1
 306 686 l 1
 306 157 l 2
 306 43 257 -7 164 -7 c 1
 71 -7 21 43 21 157 c 2
 21 686 l 1
 107 686 l 1
 107 143 l 2
 107 100 114 57 164 57 c 0
 214 57 221 100 221 143 c 2
 221 686 l 1
EndSplineSet
Validated: 1
EndChar
StartChar: V
Encoding: 86 86 23
Width: 305
VWidth: 0
Flags: HW
LayerCount: 2
Fore
SplineSet
191 0 m 1
 112 0 l 1
 12 686 l 1
 97 686 l 1
 148 265 l 1
 155 265 l 1
 205 686 l 1
 290 686 l 1
 191 0 l 1
EndSplineSet
Validated: 1
EndChar
StartChar: W
Encoding: 87 87 24
Width: 435
VWidth: 0
Flags: HW
LayerCount: 2
Fore
SplineSet
330 0 m 1
 259 0 l 1
 219 336 l 1
 212 336 l 1
 173 0 l 1
 102 0 l 1
 12 686 l 1
 89 686 l 1
 134 300 l 1
 141 300 l 1
 184 686 l 1
 248 686 l 1
 292 300 l 1
 298 300 l 1
 342 686 l 1
 420 686 l 1
 330 0 l 1
EndSplineSet
Validated: 1
EndChar
StartChar: X
Encoding: 88 88 25
Width: 404
VWidth: 0
Flags: HW
LayerCount: 2
Fore
SplineSet
375 686 m 1
 254 357 l 1
 390 0 l 1
 297 0 l 1
 197 250 l 1
 189 250 l 1
 104 0 l 1
 11 0 l 1
 140 350 l 1
 25 686 l 1
 111 686 l 1
 197 436 l 1
 204 436 l 1
 290 686 l 1
 375 686 l 1
EndSplineSet
Validated: 1
EndChar
StartChar: Y
Encoding: 89 89 26
Width: 310
VWidth: 0
Flags: HW
LayerCount: 2
Fore
SplineSet
204 686 m 1
 296 686 l 1
 197 286 l 1
 197 0 l 1
 111 0 l 1
 111 286 l 1
 11 686 l 1
 103 686 l 1
 150 421 l 1
 157 421 l 1
 204 686 l 1
EndSplineSet
Validated: 1
EndChar
StartChar: Z
Encoding: 90 90 27
Width: 319
VWidth: 0
Flags: HW
LayerCount: 2
Fore
SplineSet
293 686 m 1
 293 621 l 1
 114 79 l 1
 114 72 l 1
 300 72 l 1
 300 0 l 1
 14 0 l 1
 14 65 l 1
 200 607 l 1
 200 614 l 1
 22 614 l 1
 22 686 l 1
 293 686 l 1
EndSplineSet
Validated: 1
EndChar
StartChar: a
Encoding: 97 97 28
Width: 281
VWidth: 0
Flags: HW
LayerCount: 2
Fore
SplineSet
252 79 m 2
 252 29 259 0 259 0 c 2
 223 0 l 1
 194 21 l 1
 180 6 157 -8 116 -8 c 0
 65 -8 16 36 16 147 c 0
 17 210 44 261 109 293 c 0
 166 321 180 343 180 386 c 0
 180 436 158 450 144 450 c 0
 88 450 103 336 103 336 c 1
 37 336 l 1
 16 486 87 507 144 507 c 0
 237 507 252 443 252 407 c 0
 252 376 252 146 252 86 c 1
 252 79 l 2
177 92 m 0
 177 142 177 255 177 255 c 5
 177 255 93 230 93 134 c 0
 93 69 124 54 140 54 c 0
 160 54 177 68 177 92 c 0
EndSplineSet
EndChar
StartChar: b
Encoding: 98 98 29
Width: 296
VWidth: 0
Flags: HW
LayerCount: 2
Fore
SplineSet
166 508 m 0
 252 508 273 400 274 243 c 0
 274 43 232 -7 160 -7 c 0
 117 -7 95 8 81 22 c 2
 52 0 l 1
 17 0 l 1
 17 0 24 29 24 79 c 2
 24 686 l 1
 109 686 l 1
 109 472 l 2
 116 486 137 508 166 508 c 0
145 43 m 0
 166 43 188 50 188 243 c 0
 188 414 181 450 145 450 c 0
 123 450 109 422 109 372 c 2
 109 122 l 2
 109 50 131 43 145 43 c 0
EndSplineSet
Validated: 1
EndChar
StartChar: c
Encoding: 99 99 30
Width: 277
VWidth: 0
Flags: HW
LayerCount: 2
Fore
SplineSet
253 214 m 1
 259.172043011 50 208 -7 140 -7 c 0
 72 -7 18 29 18 243 c 0
 18 436 61 507 135 507 c 0
 194 507 260 465 253 329 c 1
 180 329 l 1
 181 429 160 455 139 455 c 0
 110 455 102 402 102 243 c 0
 102 57 132 44 146 44 c 0
 160 44 187.231707317 68 181 214 c 1
 253 214 l 1
EndSplineSet
EndChar
StartChar: d
Encoding: 100 100 31
Width: 298
VWidth: 0
Flags: HW
LayerCount: 2
Fore
SplineSet
268 78 m 2
 268 28 275 -1 276 0 c 2
 240 0 l 1
 211 22 l 1
 197 7 176 -7 133 -7 c 0
 61 -7 18 43 18 243 c 0
 18 400 40 507 126 507 c 0
 154 507 176 485 183 471 c 2
 183 685 l 1
 268 685 l 1
 268 78 l 2
183 121 m 2
 183 371 l 2
 183 421 169 450 147 450 c 0
 111 450 104 413 104 242 c 0
 104 49 125 42 147 42 c 0
 162 42 183 49 183 121 c 2
EndSplineSet
Validated: 37
EndChar
StartChar: e
Encoding: 101 101 32
Width: 282
VWidth: 0
Flags: HW
LayerCount: 2
Fore
SplineSet
260 243 m 0
 260 241 260 238 260 235 c 2
 103 235 l 1
 103 60 135 51 149 51 c 4
 166 51 195 64 185 179 c 1
 257 179 l 5
 269.10738255 15 201 -7 146 -7 c 0
 93 -7 23 28 23 228 c 0
 23 421 60 507 139 507 c 0
 218 507 260 436 260 243 c 0
104 279 m 1
 176 279 l 1
 176 422 164 449 140 449 c 0
 116 449 104 420 104 279 c 1
EndSplineSet
EndChar
StartChar: f
Encoding: 102 102 33
Width: 233
VWidth: 0
Flags: HW
LayerCount: 2
Fore
SplineSet
247.666015625 543 m 1
 247.666015625 542 l 1
 175.666015625 542 l 1
 190.666015625 578 183.666015625 621 161.666015625 621 c 2
 139.666015625 621 133.666015625 593 133.666015625 571 c 0
 133.666015625 550 140.666015625 536 140.666015625 514 c 1
 140.666015625 500 l 1
 218.666015625 500 l 1
 218.666015625 457 l 1
 140.666015625 457 l 1
 140.666015625 0 l 1
 112 0 83.3330078125 0 54.666015625 0 c 1
 54.666015625 457 l 1
 11.666015625 457 l 1
 11.666015625 500 l 1
 54.666015625 500 l 1
 54.666015625 536 l 2
 54.666015625 629 76.666015625 671 154.666015625 671 c 0
 220.666015625 671 269.666015625 636 247.666015625 543 c 1
EndSplineSet
EndChar
StartChar: g
Encoding: 103 103 34
Width: 306
VWidth: 0
Flags: HW
LayerCount: 2
Fore
SplineSet
148 507 m 0
 227 507 261 426 262 329 c 0
 262 220 220 164 148 164 c 1
 76 164 34 220 34 329 c 0
 34 426 69 507 148 507 c 0
  Spiro
    148 507 o
    212.394 482.454 o
    249.58 418.18 o
    262 329 o
    248.471 237.851 o
    209.505 182.519 o
    148 164 v
    86.4951 182.519 o
    47.5289 237.851 o
    34 329 o
    45.9757 418.18 o
    83.384 482.454 o
    0 0 z
  EndSpiro
148 223 m 1
 167 223 183 241 183 329 c 0
 183 405 175 448 148 448 c 0
 118 448 111 405 111 329 c 0
 111 241 132 223 148 223 c 1
241 435 m 1
 198 435 l 1
 219 543 l 1
 284 543 l 1
 241 435 l 1
  Spiro
    241 435 v
    198 435 v
    219 543 v
    284 543 v
    0 0 z
  EndSpiro
155 89 m 0
 221 89 290 36 290 -61 c 0
 290 -156 219 -193 148 -193 c 0
 76 -193 14 -157 14 -61 c 0
 14 4 56 35 70 44 c 1
 41 57 27 85 27 107 c 0
 27 157 98 218 98 218 c 1
 163 200 l 1
 163 200 101 164 101 128 c 0
 101 106 115 89 155 89 c 0
148 -143 m 0
 186 -143 213 -110 213 -63 c 0
 213 -13 191 30 148 30 c 0
 105 30 82 -12 82 -61 c 0
 82 -122 115 -143 148 -143 c 0
EndSplineSet
EndChar
StartChar: h
Encoding: 104 104 35
Width: 291
VWidth: 0
Flags: HW
LayerCount: 2
Fore
SplineSet
179 1 m 1
 179 407 l 2
 179 436 165 450 151 450 c 0
 130 450 108 436 108 400 c 2
 108 0 l 1
 22 0 l 1
 22 686 l 1
 108 686 l 1
 108 486 l 1
 130 501 143 508 179 508 c 0
 236 508 265 458 265 429 c 2
 265 1 l 1
 179 1 l 1
EndSplineSet
Validated: 1
EndChar
StartChar: i
Encoding: 105 105 36
Width: 138
VWidth: 0
Flags: HW
LayerCount: 2
Fore
SplineSet
23 0 m 1
 23 500 l 1
 109 500 l 1
 109 0 l 1
 23 0 l 1
109 664 m 0
 116 656 116 586 109 579 c 0
 102 572 31 572 24 579 c 0
 17 586 17 657 24 664 c 0
 31 671 102 671 109 664 c 0
EndSplineSet
Validated: 33
EndChar
StartChar: j
Encoding: 106 106 37
Width: 238
VWidth: 0
Flags: HW
LayerCount: 2
Fore
SplineSet
123 71 m 1
 123 500 l 1
 209 500 l 1
 209 -36 l 2
 209 -129 187 -171 109 -171 c 0
 43 -171 -6 -136 16 -43 c 1
 80 -43 l 1
 65 -79 79 -114 101 -114 c 2
 102 -115 l 1
 102 -114 l 1
 124 -114 137 -108 137 -65 c 0
 137 -37 123 -15 123 71 c 1
209 664 m 0
 216 657 216 586 209 579 c 0
 202 572 130 572 123 579 c 0
 116 586 116 657 123 664 c 0
 130 671 202 671 209 664 c 0
EndSplineSet
Validated: 33
EndChar
StartChar: k
Encoding: 107 107 38
Width: 309
VWidth: 0
Flags: HW
LayerCount: 2
Fore
SplineSet
294 500 m 1
 186 264 l 1
 294 0 l 1
 208 0 l 1
 122 221 l 1
 108 221 l 1
 108 0 l 1
 22 0 l 1
 22 685 l 1
 108 685 l 1
 108 286 l 1
 114 286 l 1
 215 500 l 1
 294 500 l 1
EndSplineSet
Validated: 1
EndChar
StartChar: l
Encoding: 108 108 39
Width: 135
VWidth: 0
Flags: HW
LayerCount: 2
Fore
SplineSet
22 0 m 1
 22 686 l 1
 108 686 l 1
 108 0 l 1
 22 0 l 1
EndSplineSet
Validated: 1
EndChar
StartChar: m
Encoding: 109 109 40
Width: 434
VWidth: 0
Flags: HW
LayerCount: 2
Fore
SplineSet
329 507 m 0
 417 507 408 443 408 386 c 2
 408 0 l 1
 322 0 l 1
 322 364 l 2
 322 421 323 450 294 450 c 0
 267 450 258 429 258 386 c 2
 258 0 l 1
 172 0 l 1
 172 364 l 2
 172 421 172 450 143 450 c 0
 116 450 108 429 108 386 c 2
 108 0 l 1
 22 0 l 1
 22 500 l 1
 108 500 l 1
 108 484 l 2
 125 497 150 507 179 507 c 0
 219 507 237 494 247 474 c 1
 263 491 293 507 329 507 c 0
EndSplineSet
Validated: 33
EndChar
StartChar: n
Encoding: 110 110 41
Width: 284
VWidth: 0
Flags: HW
LayerCount: 2
Fore
SplineSet
179 507 m 0
 267 507 258 443 257 386 c 2
 257 0 l 1
 172 0 l 1
 172 364 l 2
 172 421 172 450 143 450 c 0
 116 450 108 429 108 386 c 2
 108 0 l 1
 22 0 l 1
 22 500 l 1
 108 500 l 1
 108 484 l 2
 125 497 150 507 179 507 c 0
EndSplineSet
Validated: 33
EndChar
StartChar: o
Encoding: 111 111 42
Width: 283
VWidth: 0
Flags: HW
LayerCount: 2
Fore
SplineSet
139 507 m 0
 218 507 260 436 260 243 c 0
 260 29 211 -7 139 -7 c 0
 67 -7 18 29 18 243 c 0
 18 436 60 507 139 507 c 0
139 43 m 0
 154 43 175 42 175 243 c 0
 175 414 168 457 139 457 c 0
 110 457 103 414 103 243 c 0
 103 43 125 43 139 43 c 0
EndSplineSet
Validated: 33
EndChar
StartChar: p
Encoding: 112 112 43
Width: 295
VWidth: 0
Flags: HW
LayerCount: 2
Fore
SplineSet
165 507 m 0
 251 507 272 399 272 242 c 0
 272 42 231 -7 159 -7 c 0
 126 -7 108 14 108 14 c 2
 108 -186 l 1
 22 -186 l 1
 22 500 l 1
 108 500 l 1
 108 471 l 2
 115 485 136 507 165 507 c 0
143 43 m 0
 165 43 186 50 186 243 c 0
 186 414 179 450 143 450 c 0
 121 450 107 421 107 371 c 2
 107 121 l 2
 107 49 129 43 143 43 c 0
EndSplineSet
Validated: 1
EndChar
StartChar: q
Encoding: 113 113 44
Width: 296
VWidth: 0
Flags: HW
LayerCount: 2
Fore
SplineSet
182 500 m 1
 268 500 l 1
 268 -185 l 1
 182 -185 l 1
 182 15 l 2
 175 0 151 -7 132 -7 c 0
 60 -7 18 43 18 243 c 0
 18 400 39 507 125 507 c 0
 153 507 175 485 182 471 c 2
 182 500 l 1
182 121 m 2
 182 371 l 2
 182 421 169 450 147 450 c 0
 111 450 104 414 104 243 c 0
 104 50 125 43 147 43 c 0
 162 43 182 49 182 121 c 2
EndSplineSet
Validated: 1
EndChar
StartChar: r
Encoding: 114 114 45
Width: 239
VWidth: 0
Flags: HW
LayerCount: 2
Fore
SplineSet
176.82421875 506 m 0
 276.82421875 492 217.82421875 286 217.82421875 286 c 1
 148.82421875 286 l 1
 148.82421875 286 177.82421875 414 148.82421875 428 c 0
 135.82421875 435 105.82421875 429 105.82421875 386 c 2
 105.82421875 0 l 1
 22.82421875 0 l 1
 22.82421875 500 l 1
 105.82421875 500 l 1
 105.82421875 471 l 2
 112.82421875 485 139.82421875 512 176.82421875 506 c 0
EndSplineSet
EndChar
StartChar: s
Encoding: 115 115 46
Width: 280
VWidth: 0
Flags: HW
LayerCount: 2
Fore
SplineSet
167 293 m 0
 231 257 260 192 260 128 c 0
 260 35 217 -7 131 -7 c 0
 66 -7 2 14 24 171 c 1
 95 171 l 1
 95 171 74 50 131 50 c 0
 167 50 174 85 174 114 c 0
 174 143 181 186 109 229 c 0
 34 274 17 314 17 371 c 0
 17 471 74 507 131 507 c 0
 188 507 260 486 238 336 c 1
 167 336 l 1
 167 336 188 450 131 450 c 0
 116 450 95 443 95 386 c 0
 95 343 102 329 167 293 c 0
EndSplineSet
Validated: 33
EndChar
StartChar: t
Encoding: 116 116 47
Width: 235
VWidth: 0
Flags: HW
LayerCount: 2
Fore
SplineSet
219 457 m 1
 141 457 l 1
 141 107 l 2
 141 35 176 36 205 36 c 1
 205 29 205 7 205 7 c 1
 205 7 184 -7 134 -7 c 0
 84 -7 55 14 55 93 c 2
 55 457 l 1
 12 457 l 1
 12 500 l 1
 55 500 l 1
 55 657 l 1
 141 657 l 1
 141 500 l 1
 219 500 l 1
 219 457 l 1
EndSplineSet
Validated: 33
EndChar
StartChar: u
Encoding: 117 117 48
Width: 284
VWidth: 0
Flags: HW
LayerCount: 2
Fore
SplineSet
256 79 m 2
 256 29 263 0 262 0 c 2
 227 0 l 1
 198 22 l 2
 191 15 168 -7 127 -7 c 0
 48 -7 20 36 20 136 c 2
 20 500 l 1
 106 500 l 1
 106 143 l 2
 106 86 107 50 136 50 c 0
 163 50 170 71 170 114 c 2
 170 500 l 1
 256 500 l 1
 256 79 l 2
EndSplineSet
Validated: 33
EndChar
StartChar: v
Encoding: 118 118 49
Width: 293
VWidth: 0
Flags: HW
LayerCount: 2
Fore
SplineSet
198 500 m 1
 277 500 l 1
 183 0 l 1
 105 0 l 1
 12 500 l 1
 91 500 l 1
 141 171 l 1
 148 171 l 1
 198 500 l 1
EndSplineSet
Validated: 1
EndChar
StartChar: w
Encoding: 119 119 50
Width: 407
VWidth: 0
Flags: HW
LayerCount: 2
Fore
SplineSet
312 500 m 1
 391 500 l 1
 305 0 l 1
 227 0 l 1
 205 228 l 1
 198 228 l 1
 176 0 l 1
 98 0 l 1
 12 500 l 1
 91 500 l 1
 133 200 l 1
 141 200 l 1
 169 500 l 1
 234 500 l 1
 263 200 l 1
 270 200 l 1
 312 500 l 1
EndSplineSet
Validated: 1
EndChar
StartChar: x
Encoding: 120 120 0
Width: 306
VWidth: 0
Flags: HW
LayerCount: 2
Fore
SplineSet
290 500 m 1
 197 243 l 1
 290 0 l 1
 211 0 l 1
 154 157 l 1
 147 157 l 1
 90 0 l 1
 11 0 l 1
 111 235 l 1
 19 500 l 1
 97 500 l 1
 154 314 l 1
 161 314 l 1
 211 500 l 1
 290 500 l 1
EndSplineSet
Validated: 1
EndChar
StartChar: y
Encoding: 121 121 51
Width: 293
VWidth: 0
Flags: HW
LayerCount: 2
Fore
SplineSet
198 500 m 1
 277 500 l 1
 198 36 l 2
 169 -128 156 -164 91 -164 c 0
 19 -164 12 -96 12 -50 c 1
 62 -50 l 2
 62 -58 62 -114 91 -114 c 0
 120 -114 126 -79 119 -43 c 2
 12 500 l 1
 91 500 l 1
 141 150 l 1
 148 150 l 1
 198 500 l 1
EndSplineSet
Validated: 33
EndChar
StartChar: z
Encoding: 122 122 52
Width: 295
VWidth: 0
Flags: HW
LayerCount: 2
Fore
SplineSet
274 457 m 1
 109 72 l 1
 109 64 l 1
 274 64 l 1
 274 0 l 1
 16 0 l 1
 16 43 l 1
 187 428 l 1
 187 435 l 1
 16 435 l 1
 16 500 l 1
 274 500 l 1
 274 457 l 1
EndSplineSet
Validated: 1
EndChar
